<svg version="1.2" baseProfile="tiny-ps" xmlns="http://www.w3.org/2000/svg" viewBox="0 0 468 232" width="468" height="232">
	<title>Nouveau projet</title>
	<defs>
		<linearGradient id="grd1" gradientUnits="userSpaceOnUse"  x1="19.3" y1="282.6" x2="8.4" y2="5">
			<stop offset="0" stop-color="#b5eaf7"  />
			<stop offset="1" stop-color="#d1f1f6"  />
		</linearGradient>
		<linearGradient id="grd2" gradientUnits="userSpaceOnUse"  x1="19.8" y1="253.8" x2="9.1" y2="71.1">
			<stop offset="0" stop-color="#d2edf9"  />
			<stop offset="1" stop-color="#ffffff"  />
		</linearGradient>
		<linearGradient id="grd3" gradientUnits="userSpaceOnUse"  x1="130.6" y1="204.5" x2="129.9" y2="186.7">
			<stop offset="0" stop-color="#b5eaf7"  />
			<stop offset="1" stop-color="#d1f1f6"  />
		</linearGradient>
	</defs>
	<style>
		tspan { white-space:pre }
		.s0 { fill: url(#grd1);stroke: #ffffff;paint-order:stroke fill markers;stroke-linejoin:round;stroke-width: 16 } 
		.s1 { mix-blend-mode: multiply;fill: url(#grd2) } 
		.s2 { fill: #ffffff } 
		.s3 { fill: url(#grd3) } 
	</style>
	<g id="&lt;Group&gt;">
	</g>
	<path id="&lt;Path&gt;" class="s0" d="m445.11 205.42c-7.31 9.73-42.86 12.89-106.63 9.47c-57.98 10.15-99.36 9.24-124.15-2.72c-45.11 1.85-88.91 2.07-131.4 0.67c-63.74-2.11-68.65-28.92-61.41-32.3c3.46-1.62 8.04 2.53 15.23 6.6c7.85 4.43 19.17 9.98 34.94 5.41c48.26-13.98 59.86 6.76 60.61 7.09c-0.15-0.55-4.01-16.22 26.63-36.58c20.8-13.83 45.76-16.14 74.88-6.94c-16.72-12.72-23.89-24.64-21.51-35.76c3.52-16.52 30.37-4.4 30.87-4.17c-0.89-1.17-45.37-60 7.82-90.59c53.74-30.91 122.05 40.04 90.64 79.8c40.31 1.46 49.79 26.55 28.44 75.28c14.96-3.69 25.77 0.57 32.42 12.78c1.4 2.56 2.55 5.59 3.36 9.16c28.46-3.21 50.24-11.76 39.27 2.82z" />
	<path id="&lt;Path&gt;" class="s1" d="m445.11 205.42c-7.31 9.73-42.86 12.89-106.63 9.47c-57.98 10.15-99.36 9.24-124.15-2.72c-45.11 1.85-88.91 2.07-131.4 0.67c-63.74-2.11-68.65-28.92-61.41-32.3c3.46-1.62 8.04 2.53 15.23 6.6c0.4 2.74 1.66 5.43 3.56 7.46c4.47 4.75 11.24 6.64 17.72 7.95c18.51 3.73 37.68 4.41 56.43 1.99c19.34-2.5 40.68-7.86 57.09 2.38c-2.04-6.81 8.18-13.27 13.77-8.7c-3.26-6.19-1.37-14.16 3.44-19.3c4.81-5.15 11.99-7.72 19.12-8.31c17.65-1.45 35.61 9.44 42.02 25.46c4.98-3.98 11.73-5.81 18.11-4.92c-20.33-14.36-21.49-83.73 39.25-81.15c23.14-0.07 43.39 25.83 30.6 35.88c10.5 1 16.66 5.61 16.55 15.87c-0.1 10.26-5.86 19.66-12.57 27.58c10.07 0.65 19.71 6.06 25.32 14.22c11.77-3.37 23.55-6.74 35.32-10.12c1.4 2.56 2.55 5.59 3.36 9.16c28.46-3.21 50.24-11.76 39.27 2.82z" />
	<path id="&lt;Path&gt;" class="s2" d="m236.72 106.16c-10.4-18.34-25.87-57.49 14.26-80.57c26-14.96 55.42-6.06 75.3 11.61c-10.54 32.71-34.76 73.92-89.56 68.96z" />
	<path id="&lt;Path&gt;" class="s2" d="m362.32 186.69c9.84-31.03 2.94-58.13-20.7-81.3c40.31 1.46 49.79 26.55 28.44 75.28c7.37-1.81 14.4-1.14 21.09 1.99c-9.83 0.29-19.44 1.63-28.83 4.03z" />
	<g id="&lt;Group&gt;">
		<path id="&lt;Path&gt;" class="s2" d="m135.11 186.62c3.32-6.3 10.12-14.46 23.82-23.57c20.8-13.83 45.76-16.14 74.88-6.94c-16.72-12.72-23.89-24.64-21.51-35.76c3.52-16.52 30.37-4.4 30.87-4.17c-18.7 7.34-19.62 21.81-2.77 43.41c-50.59-5.85-85.68 3.16-105.29 27.03z" />
	</g>
	<g id="&lt;Group&gt;">
		<path id="&lt;Path&gt;" class="s2" d="m132.29 199.63l-0.23-2.41c-0.01 1.45 0.2 2.29 0.23 2.41z" />
		<path id="&lt;Path&gt;" class="s2" d="m72 192.46c20.47-1.06 40.56 1.33 60.29 7.17c-0.74-0.33-12.29-20.97-60.29-7.17z" />
	</g>
	<path id="&lt;Path&gt;" class="s3" d="m211.51 196.59c-70.15-28.52-79.07-10.9-78.03 2.4c17.84 2.05 43.53 2.54 78.03-2.4z" />
</svg>